<?xml version="1.0" encoding="UTF-8" standalone="no"?>
<!-- Created with Inkscape (http://www.inkscape.org/) -->

<svg
    xmlns:inkscape="http://www.inkscape.org/namespaces/inkscape"
    xmlns:sodipodi="http://sodipodi.sourceforge.net/DTD/sodipodi-0.dtd"
    width="64mm"
    height="64mm"
    viewBox="0 0 64 64"
    version="1.1"
    id="svg5"
    inkscape:version="1.1 (1:1.1+202105261517+ce6663b3b7)"
    sodipodi:docname="favicon.svg"
    xmlns="http://www.w3.org/2000/svg"
>
    <sodipodi:namedview
        id="namedview7"
        pagecolor="#ffffff"
        bordercolor="#666666"
        borderopacity="1.0"
        inkscape:pageshadow="2"
        inkscape:pageopacity="0.0"
        inkscape:pagecheckerboard="0"
        inkscape:document-units="px"
        showgrid="false"
     inkscape:zoom="0.94608586"
     inkscape:cx="-32.766582"
     inkscape:cy="300.18417"
     inkscape:window-width="1920"
     inkscape:window-height="1056"
     inkscape:window-x="1366"
     inkscape:window-y="0"
     inkscape:window-maximized="1"
     inkscape:current-layer="layer2" />
  <defs
     id="defs2" />
  <g
     inkscape:label="Layer 1"
     inkscape:groupmode="layer"
     id="layer1"
     style="opacity:1">
    <path
       style="fill:#ff7f2a;stroke:none;stroke-width:0.335622px;stroke-linecap:butt;stroke-linejoin:miter;stroke-opacity:1"
       d="M 5.5515987,61.421927 C 9.9388936,21.636319 41.624631,16.252644 42.698119,16.690633 c 0,0 5.43612,0.648755 7.918779,7.91668 C 54.684792,36.515975 6.7810069,62.410024 5.5515987,61.421927 Z"
       id="path61"
       sodipodi:nodetypes="ccsc" />
    <path
       style="fill:#008000;stroke:none;stroke-width:0.335622px;stroke-linecap:butt;stroke-linejoin:miter;stroke-opacity:1"
       d="m 48.283539,17.816608 c -2.7357,-7.163869 1.411284,-13.0690144 6.383429,-15.0701674 4.972144,-2.00115049 5.914618,-0.5025275 5.914618,-0.5025275 0,0 1.639742,9.5704309 -2.077087,12.3669439 -3.716843,2.796515 -8.704925,2.62109 -10.22096,3.205751 z"
       id="path63"
       sodipodi:nodetypes="cscsc" />
    <path
       style="fill:#d45500;fill-opacity:0.55381;stroke:none;stroke-width:0.335622px;stroke-linecap:butt;stroke-linejoin:miter;stroke-opacity:1"
       d="M 5.5515987,61.421927 C 13.996789,58.458343 32.415792,47.437397 42.103183,38.880754 c 8.447935,-7.461862 9.788981,-12.98835 8.384755,-13.92631 -1.404227,-0.937956 -2.388864,4.683749 -7.046645,9.483993 -3.103933,3.198871 -15.30344,14.320289 -24.549251,18.789 -3.729052,1.802337 -13.3404433,8.19449 -13.3404433,8.19449 z"
       id="path1419"
       sodipodi:nodetypes="cssssc" />
    <path
       style="fill:#ffff80;fill-opacity:0.178878;stroke:none;stroke-width:0.335622px;stroke-linecap:butt;stroke-linejoin:miter;stroke-opacity:1"
       d="M 5.5515987,61.421927 C 8.5686548,50.319701 17.230376,38.87465 21.325838,34.676625 25.229819,30.674877 39.53508,21.859819 45.8603,20.562976 c 3.983441,-0.816715 -3.162181,-3.872343 -3.162181,-3.872343 0,0 -6.364577,2.177566 -13.954658,7.150073 -7.59008,4.972506 -13.385313,12.047082 -15.359844,16.36635 -1.974529,4.31927 -7.4285094,15.76507 -7.8320183,21.214871 z"
       id="path3570"
       sodipodi:nodetypes="csscssc" />
    <path
       style="fill:#4b4b00;fill-opacity:0.178878;stroke:none;stroke-width:0.335622px;stroke-linecap:butt;stroke-linejoin:miter;stroke-opacity:1"
       d="m 48.283538,17.816607 c 3.340625,-8.9411062 7.35003,-7.9925348 9.097793,-11.672121 1.747759,-3.67959 3.200255,-3.9005729 3.200255,-3.9005729 0,0 0.620445,5.3839017 0.372721,6.3582566 -0.247724,0.974351 0.01966,3.0661693 -1.308524,4.7263643 -1.328126,1.660199 -3.3937,2.903857 -5.48226,3.345163 -2.088559,0.441306 -5.879985,1.14291 -5.879985,1.14291 z"
       id="path6630" />
  </g>
  <g
     inkscape:groupmode="layer"
     id="layer2"
     inkscape:label="Strokes">
    <path
       style="opacity:1;fill:none;stroke:#000000;stroke-width:0.335622px;stroke-linecap:butt;stroke-linejoin:miter;stroke-opacity:1"
       d="m 48.283539,17.816608 c -2.7357,-7.163869 1.411284,-13.0690144 6.383429,-15.0701674 4.972144,-2.00115049 5.914618,-0.5025275 5.914618,-0.5025275 0,0 1.639742,9.5704309 -2.077087,12.3669439 -3.716843,2.796515 -8.704925,2.62109 -10.22096,3.205751 z"
       id="path5054"
       sodipodi:nodetypes="cscsc" />
    <path
       style="opacity:1;fill:none;stroke:#000000;stroke-width:0.335622px;stroke-linecap:butt;stroke-linejoin:miter;stroke-opacity:1"
       d="M 5.5515987,61.421927 C 9.9388936,21.636319 41.624631,16.252644 42.698119,16.690633 c 0,0 5.43612,0.648755 7.918779,7.91668 C 54.684792,36.515975 6.7810069,62.410024 5.5515987,61.421927 Z"
       id="path3499"
       sodipodi:nodetypes="ccsc" />
  </g>
</svg>
